# xmcd
#
# Track frame offsets: 
#        183
#        15223
#        30290
#        43380
#        60948
#        76073
#        89763
#        104375
#        118210
#        138608
#        156763
#        173760
#        206483
#        234875
#        268685
#        289825
#        307923
#        316705
#        325713
#        335163
#
# Disc length: 4612 seconds
#
# Revision: 2
# Processed by: cddbd v1.5.2PL0 Copyright (c) Steve Scherf et al.
# Submitted via: ExactAudioCopy v0.99pb4
#
DISCID=08120214
DTITLE=Various Artist - Le Top Du Blues [CD1]
DYEAR=2003
DGENRE=Blues
TTITLE0=Sonny Terry and Brownie McGhee - Red River Blues
TTITLE1=Willie Dixon and Memphis Slim - Sittin' and Cryin' The Blues
TTITLE2=Sonny Boy Williamson - 99
TTITLE3=Lightin' Hopkins - The Howling Wolf
TTITLE4=Muddy Waters - They Call Me Muddy Waters
TTITLE5=Elmore James - Dust My Broom
TTITLE6=Otis Rush Blues Band - I Can't Quit You Baby
TTITLE7=Chuck Berry - In The Wee Wee Hours
TTITLE8=Otis Spann - Some Day
TTITLE9=Jimmy Cotton Blues Quartet - The Blues Keep Falling
TTITLE10=John Lee Hooker - Red House
TTITLE11=Albert King - I'll Play The Blues For You
TTITLE12=Buddy Guy - A Man And The Blues
TTITLE13=Jimi Hendrix - Red House
TTITLE14=Juniors Wells - Tobacco Road
TTITLE15=Howlin' Wolf - The Red Rooster
TTITLE16=Eric Clapton and Jimmy Page - Freight Loader
TTITLE17=All Stars feat. Jeff Beck - Steelin'
TTITLE18=John Hammond - Baby Please Don't Go
TTITLE19=Verbeke - One Kinda Favor
EXTD=
EXTT0=
EXTT1=
EXTT2=
EXTT3=
EXTT4=
EXTT5=
EXTT6=
EXTT7=
EXTT8=
EXTT9=
EXTT10=
EXTT11=
EXTT12=
EXTT13=
EXTT14=
EXTT15=
EXTT16=
EXTT17=
EXTT18=
EXTT19=
PLAYORDER=
